<svg id="Capa_1" enable-background="new 0 0 512 512" height="512" viewBox="0 0 512 512" width="512" xmlns="http://www.w3.org/2000/svg"><path d="m204.5 204.5h-30l-60-94.607 60-102.393h30z" fill="#ffeab0"/><path d="m174.5 204.5h-122l-45 45v-242h167z" fill="#fff7df"/><path d="m134.519 43.5c-2.737 0-5.408.279-7.99.803l-20.529 124.197 56.79-56.771c7.235-7.233 11.71-17.224 11.71-28.261 0-22.074-17.9-39.968-39.981-39.968z" fill="#be437c"/><path d="m144.5 83.467c0-19.332-7.717-35.457-17.971-39.164-7.955 1.615-15.053 5.59-20.529 11.164-7.254-7.383-17.349-11.967-28.519-11.967-22.081 0-39.981 17.894-39.981 39.967 0 11.037 4.475 21.029 11.71 28.261l56.79 56.772 31.918-56.771c4.067-7.233 6.582-17.225 6.582-28.262z" fill="#fa4087"/><path d="m234.5 172.5v129.511c0 12.426 10.074 22.5 22.5 22.5 12.427 0 22.5-10.074 22.5-22.5l30-174.511h-30c-24.75 0-45 20.25-45 45z" fill="#f9a3bf"/><path d="m504.5 172.5v130.261c0 12.426-10.074 21.75-22.5 21.75-12.427 0-22.5-9.324-22.5-21.75l-30-175.261h30c24.75 0 45 20.25 45 45z" fill="#be437c"/><path d="m429.5 127.5h-30l22.593 376.988c.213 0 .424.009.638.005 20.373-.39 36.769-17.027 36.769-37.493v-309.5c0-16.569-13.431-30-30-30z" fill="#fa4087"/><path d="m429.5 467v-309.5c0-16.569-13.431-30-30-30h-90c-16.569 0-30 13.431-30 30v308.759c0 21.027 17.208 38.636 38.231 38.234 20.373-.39 36.769-17.027 36.769-37.493v-157.489h30v156.749c0 20.813 16.862 38.266 37.593 38.229 4.099-.25 7.407-16.934 7.407-37.489z" fill="#fa71a3"/><path d="m369.171 7.5v90c24.853 0 45-20.147 45-45s-20.147-45-45-45z" fill="#fa4087"/><path d="m384.171 52.5c0-24.853-6.716-45-15-45-24.853 0-45 20.147-45 45s20.147 45 45 45c8.285 0 15-20.147 15-45z" fill="#fa71a3"/><path d="m100.698 173.804c1.464 1.464 3.383 2.196 5.302 2.196s3.838-.732 5.302-2.196l56.79-56.771c8.969-8.966 13.908-20.886 13.908-33.565 0-26.174-21.3-47.468-47.48-47.468-10.438 0-20.342 3.337-28.52 9.511-8.178-6.174-18.081-9.511-28.52-9.511-26.18 0-47.48 21.294-47.48 47.468 0 12.68 4.939 24.6 13.908 33.564zm-23.218-122.804c8.78 0 17.009 3.453 23.17 9.724 1.41 1.435 3.338 2.243 5.35 2.243s3.939-.809 5.35-2.243c6.161-6.271 14.39-9.724 23.17-9.724 17.909 0 32.48 14.565 32.48 32.468 0 8.672-3.378 16.824-9.512 22.957l-51.488 51.471-51.488-51.471c-6.134-6.133-9.512-14.285-9.512-22.957 0-17.903 14.571-32.468 32.48-32.468z"/><path d="m204.5 0h-197c-4.142 0-7.5 3.357-7.5 7.5v242c0 3.033 1.827 5.769 4.63 6.929.928.384 1.902.571 2.869.571 1.952 0 3.87-.762 5.305-2.196l42.802-42.804h148.894c4.142 0 7.5-3.357 7.5-7.5v-197c0-4.143-3.358-7.5-7.5-7.5zm-7.5 197h-144.5c-1.989 0-3.897.79-5.303 2.196l-32.197 32.198v-216.394h182z"/><path d="m459.5 120h-180c-28.949 0-52.5 23.552-52.5 52.5v129.511c0 16.542 13.458 30 30 30 5.462 0 10.584-1.475 15-4.036v139.025c0 24.813 20.187 45 45 45s45-20.187 45-45v-149.989h15v149.989c0 24.813 20.187 45 45 45s45-20.187 45-45v-138.796c4.389 2.424 9.497 3.806 15 3.806 16.822 0 30-12.849 30-29.25v-130.26c0-28.948-23.551-52.5-52.5-52.5zm37.5 182.761c0 8.124-6.449 14.25-15 14.25s-15-6.126-15-14.25v-145.261c0-4.143-3.358-7.5-7.5-7.5s-7.5 3.357-7.5 7.5v309.5c0 16.542-13.458 30-30 30s-30-13.458-30-30v-157.489c0-4.143-3.358-7.5-7.5-7.5h-30c-4.142 0-7.5 3.357-7.5 7.5v157.489c0 16.542-13.458 30-30 30s-30-13.458-30-30v-264.5c0-4.143-3.358-7.5-7.5-7.5s-7.5 3.357-7.5 7.5v99.511c0 8.271-6.729 15-15 15s-15-6.729-15-15v-129.511c0-20.678 16.822-37.5 37.5-37.5h180c20.678 0 37.5 16.822 37.5 37.5z"/><path d="m279.5 150c-4.142 0-7.5 3.357-7.5 7.5v15c0 4.143 3.358 7.5 7.5 7.5s7.5-3.357 7.5-7.5v-15c0-4.143-3.358-7.5-7.5-7.5z"/><path d="m369.171 105c28.949 0 52.5-23.552 52.5-52.5s-23.551-52.5-52.5-52.5-52.5 23.552-52.5 52.5 23.552 52.5 52.5 52.5zm0-90c20.678 0 37.5 16.822 37.5 37.5s-16.822 37.5-37.5 37.5-37.5-16.822-37.5-37.5 16.823-37.5 37.5-37.5z"/></svg>