<?xml version="1.0" encoding="iso-8859-1"?>
<!-- Generator: Adobe Illustrator 22.1.0, SVG Export Plug-In . SVG Version: 6.00 Build 0)  -->
<svg xmlns="http://www.w3.org/2000/svg" xmlns:xlink="http://www.w3.org/1999/xlink" version="1.1" id="Layer_3" x="0px" y="0px" viewBox="0 0 64 64" style="enable-background:new 0 0 64 64;" xml:space="preserve" width="512" height="512">
<g>
	<g>
		<path style="fill:#946C5A;" d="M48,39v3.858c0,2.652-1.054,5.196-2.929,7.071L45,50H19l-0.071-0.071    C17.054,48.054,16,45.51,16,42.858V39"/>
	</g>
	<g>
		<path style="fill:#67AC5B;" d="M22,30L7,37c-2.761,0-5,2.239-5,5s2.239,5,5,5s5-2.239,5-5l9-2l-1,7l-4,12l0,0c0,1.657,1.343,3,3,3    h6l4-8h6h0l4,8h6c1.657,0,3-1.343,3-3l0,0l-4-12l-1-7c0,0,9,2,9,2c0,2.761,2.239,5,5,5s5-2.239,5-5s-2.239-5-5-5l-15-7"/>
	</g>
	<g>
		<polygon style="fill:#D1D8DB;" points="5,30 9,30 9,2 5,8   "/>
	</g>
	<g>
		<polygon style="fill:#D1D8DB;" points="59,30 55,30 55,2 59,8   "/>
	</g>
	<g>
		<rect x="2" y="30" style="fill:#39474E;" width="10" height="4"/>
	</g>
	<g>
		<rect x="52" y="30" transform="matrix(-1 4.483779e-11 -4.483779e-11 -1 114 64)" style="fill:#39474E;" width="10" height="4"/>
	</g>
	<g>
		<rect x="5" y="34" style="fill:#657B88;" width="4" height="16"/>
	</g>
	<g>
		<rect x="55" y="34" transform="matrix(-1 4.479249e-11 -4.479249e-11 -1 114 84)" style="fill:#657B88;" width="4" height="16"/>
	</g>
	<g>
		<polyline style="fill:#FAE0B8;" points="39,31 43,40 44,47 35,50 29,50 20,47 21,40 25,31   "/>
	</g>
	<g>
		<circle style="fill:#74564A;" cx="32" cy="48" r="2"/>
	</g>
	<g>
		<polygon style="fill:#4496EC;" points="47.313,56.937 37.455,58.909 36,56 45.9,52.7   "/>
	</g>
	<g>
		<polygon style="fill:#4496EC;" points="16.688,56.938 26.545,58.909 28,56 18.1,52.7   "/>
	</g>
	<g>
		<polygon style="fill:#4496EC;" points="52.119,34.722 49.261,41.391 46.036,40.675 46.965,32.317   "/>
	</g>
	<g>
		<polygon style="fill:#4496EC;" points="14.739,41.391 11.881,34.722 17.035,32.317 17.964,40.675   "/>
	</g>
	<g>
		<path style="fill:#97C05C;" d="M50,22c0-2.691-1.924-5.13-5.036-6.927C44.586,6.317,38.936,2,32,2S19.414,6.317,19.036,15.073    C15.924,16.87,14,19.309,14,22c0,4.206,4.68,7.799,11.3,9.276C27.258,32.976,29.545,34,32,34s4.742-1.024,6.7-2.724    C45.32,29.799,50,26.206,50,22z"/>
	</g>
	<g>
		<path style="fill:#4496EC;" d="M47.661,17.097c-0.75-0.736-1.65-1.419-2.698-2.024c-0.063-1.467-0.286-2.798-0.627-4.017L38,10    l-6,2l-6-2l-6.337,1.056c-0.341,1.218-0.564,2.55-0.627,4.017c-1.048,0.605-1.947,1.288-2.698,2.024L23,19l3.229-1.076    C28.064,17.312,29.986,17,31.921,17h0.158c1.935,0,3.857,0.312,5.692,0.924L41,19L47.661,17.097z"/>
	</g>
	<g>
		<path d="M32,35c-2.501,0-4.972-0.968-7.162-2.803C17.637,30.525,13,26.539,13,22c0-2.831,1.794-5.484,5.068-7.513    C18.64,6.273,24.059,1,32,1c7.941,0,13.36,5.273,13.932,13.487C49.206,16.516,51,19.168,51,22c0,4.539-4.637,8.525-11.838,10.197    C36.972,34.032,34.501,35,32,35z M32,3c-7.058,0-11.642,4.643-11.964,12.116c-0.015,0.342-0.203,0.652-0.499,0.823    C16.611,17.628,15,19.781,15,22c0,3.561,4.227,6.896,10.518,8.3c0.162,0.036,0.312,0.112,0.438,0.221    c3.735,3.244,8.354,3.244,12.089,0c0.125-0.108,0.276-0.185,0.438-0.221C44.773,28.896,49,25.561,49,22    c0-2.219-1.611-4.372-4.537-6.061c-0.296-0.171-0.484-0.481-0.499-0.823C43.643,7.643,39.058,3,32,3z"/>
	</g>
	<g>
		<path d="M32,13c-0.107,0-0.213-0.017-0.316-0.051l-5.764-1.921l-5.755,0.959l-0.329-1.973l6-1C25.998,8.987,26.162,9,26.316,9.051    L32,10.946l5.684-1.895C37.838,9,38.003,8.986,38.165,9.014l6,1l-0.329,1.973l-5.755-0.959l-5.764,1.921    C32.213,12.983,32.107,13,32,13z"/>
	</g>
	<g>
		<path d="M41,20c-0.107,0-0.214-0.017-0.316-0.051l-3.229-1.076C35.718,18.293,33.909,18,32.079,18h-0.158    c-1.83,0-3.639,0.293-5.375,0.873l-3.229,1.076c-0.19,0.064-0.397,0.069-0.591,0.013l-7-2l0.55-1.923l6.702,1.915l2.936-0.979    C27.854,16.328,29.875,16,31.921,16h0.158c2.045,0,4.067,0.328,6.008,0.975l2.936,0.979l6.702-1.915l0.55,1.923l-7,2    C41.185,19.987,41.092,20,41,20z"/>
	</g>
	<g>
		<g>
			<circle cx="25" cy="14" r="2"/>
		</g>
	</g>
	<g>
		<g>
			<circle cx="39" cy="14" r="2"/>
		</g>
	</g>
	<g>
		<path d="M32.156,29h-0.312c-3.367,0-6.627-0.987-9.43-2.855l-1.969-1.313l1.109-1.664l1.969,1.313    c2.473,1.648,5.35,2.519,8.32,2.519h0.312c2.971,0,5.848-0.871,8.32-2.519l1.969-1.313l1.109,1.664l-1.969,1.313    C38.783,28.013,35.522,29,32.156,29z"/>
	</g>
	<g>
		<rect x="18.076" y="34.5" transform="matrix(0.4063 -0.9137 0.9137 0.4063 -18.7828 42.0915)" width="9.849" height="2"/>
	</g>
	<g>
		<rect x="40" y="30.576" transform="matrix(0.9138 -0.4061 0.4061 0.9138 -10.8842 19.7114)" width="2" height="9.849"/>
	</g>
	<g>
		<rect x="31" y="34" width="2" height="12"/>
	</g>
	<g>
		<path d="M32,42h-6c-0.155,0-0.309-0.036-0.447-0.105l-4-2l0.895-1.789L26.236,40H32V42z"/>
	</g>
	<g>
		<path d="M32,51c-1.654,0-3-1.346-3-3s1.346-3,3-3s3,1.346,3,3S33.654,51,32,51z M32,47c-0.551,0-1,0.449-1,1s0.449,1,1,1    s1-0.449,1-1S32.551,47,32,47z"/>
	</g>
	<g>
		<path d="M38,42h-6v-2h5.764l3.789-1.895l0.895,1.789l-4,2C38.309,41.964,38.155,42,38,42z"/>
	</g>
	<g>
		<path d="M45,63h-6c-0.379,0-0.725-0.214-0.895-0.553L34.382,55h-4.764l-3.724,7.447C25.725,62.786,25.379,63,25,63h-6    c-2.206,0-4-1.794-4-4c0-0.107,0.017-0.214,0.051-0.316l4-12l1.897,0.633l-3.943,11.83C17.081,60.181,17.946,61,19,61h5.382    l3.724-7.447C28.275,53.214,28.621,53,29,53h6c0.379,0,0.725,0.214,0.895,0.553L39.618,61H45c1.054,0,1.919-0.819,1.995-1.854    l-3.943-11.83l1.897-0.633l4,12C48.983,58.786,49,58.893,49,59C49,61.206,47.206,63,45,63z"/>
	</g>
	<g>
		<rect x="8.327" y="32.033" transform="matrix(0.9062 -0.4228 0.4228 0.9062 -12.5138 9.6522)" width="14.346" height="2"/>
	</g>
	<g>
		<path d="M4.682,47.517C2.479,46.564,1,44.347,1,41.999c0-2.386,1.414-4.544,3.6-5.5L5.4,38.333C3.942,38.969,3,40.409,3,41.999    c0,1.562,0.995,3.042,2.476,3.682L4.682,47.517z"/>
	</g>
	<g>
		<path d="M35,51h-6c-0.107,0-0.214-0.017-0.316-0.051l-9-3c-0.458-0.153-0.742-0.612-0.673-1.09l0.795-5.568l-6.861,1.524    c-0.281,2.053-1.609,3.84-3.544,4.686L8.6,45.668C10.058,45.03,11,43.591,11,42c0-0.469,0.326-0.875,0.783-0.976l9-2    c0.321-0.071,0.656,0.02,0.896,0.242c0.241,0.223,0.357,0.55,0.31,0.875l-0.882,6.174L29.162,49h5.676l8.054-2.685l-0.882-6.174    c-0.047-0.325,0.069-0.652,0.31-0.875s0.575-0.315,0.896-0.242l9,2C52.674,41.125,53,41.531,53,42c0,1.591,0.942,3.031,2.4,3.667    L54.6,47.5c-1.935-0.845-3.264-2.633-3.544-4.686l-6.861-1.524l0.795,5.568c0.068,0.479-0.215,0.938-0.673,1.09l-9,3    C35.214,50.983,35.107,51,35,51z"/>
	</g>
	<g>
		<path d="M59.413,47.475l-0.825-1.822C60.031,44.999,61,43.531,61,41.999c0-1.611-0.959-3.058-2.444-3.686l0.779-1.842    C61.561,37.413,63,39.583,63,41.999C63,44.338,61.592,46.487,59.413,47.475z"/>
	</g>
	<g>
		<rect x="47.5" y="25.86" transform="matrix(0.4229 -0.9062 0.9062 0.4229 -1.9447 63.0132)" width="2" height="14.346"/>
	</g>
	<g>
		<rect x="22.5" y="49.757" transform="matrix(0.3162 -0.9487 0.9487 0.3162 -35.6346 59.5596)" width="2" height="9.487"/>
	</g>
	<g>
		<rect x="21" y="52.901" transform="matrix(0.1961 -0.9806 0.9806 0.1961 -39.1882 68.198)" width="2" height="10.198"/>
	</g>
	<g>
		<rect x="35.757" y="53.5" transform="matrix(0.9486 -0.3164 0.3164 0.9486 -15.1621 15.6126)" width="9.487" height="2"/>
	</g>
	<g>
		<rect x="36.901" y="57" transform="matrix(0.9805 -0.1963 0.1963 0.9805 -10.5684 9.3733)" width="10.198" height="2"/>
	</g>
	<g>
		<rect x="16.5" y="31.972" transform="matrix(0.9939 -0.1104 0.1104 0.9939 -3.9237 2.1558)" width="2" height="9.055"/>
	</g>
	<g>
		<rect x="12.5" y="34.692" transform="matrix(0.9191 -0.3939 0.3939 0.9191 -14.0744 8.4308)" width="2" height="7.616"/>
	</g>
	<g>
		<rect x="41.972" y="35.5" transform="matrix(0.1104 -0.9939 0.9939 0.1104 5.0905 78.6871)" width="9.055" height="2"/>
	</g>
	<g>
		<rect x="46.692" y="37.5" transform="matrix(0.3941 -0.9191 0.9191 0.3941 -4.786 69.7403)" width="7.616" height="2"/>
	</g>
	<g>
		<path d="M9,51H5c-0.552,0-1-0.448-1-1V34c0-0.552,0.448-1,1-1h4c0.552,0,1,0.448,1,1v16C10,50.552,9.552,51,9,51z M6,49h2V35H6V49    z"/>
	</g>
	<g>
		<path d="M9,31H5c-0.552,0-1-0.448-1-1V8c0-0.197,0.059-0.391,0.168-0.555l4-6c0.245-0.367,0.7-0.532,1.122-0.402    C9.711,1.17,10,1.56,10,2v28C10,30.552,9.552,31,9,31z M6,29h2V5.303l-2,3V29z"/>
	</g>
	<g>
		<path d="M12,35H2c-0.552,0-1-0.448-1-1v-4c0-0.552,0.448-1,1-1h10c0.552,0,1,0.448,1,1v4C13,34.552,12.552,35,12,35z M3,33h8v-2H3    V33z"/>
	</g>
	<g>
		<path d="M59,51h-4c-0.552,0-1-0.448-1-1V34c0-0.552,0.448-1,1-1h4c0.552,0,1,0.448,1,1v16C60,50.552,59.552,51,59,51z M56,49h2V35    h-2V49z"/>
	</g>
	<g>
		<path d="M59,31h-4c-0.552,0-1-0.448-1-1V2c0-0.44,0.289-0.83,0.71-0.957c0.42-0.129,0.877,0.036,1.122,0.402l4,6    C59.941,7.609,60,7.803,60,8v22C60,30.552,59.552,31,59,31z M56,29h2V8.303l-2-3V29z"/>
	</g>
	<g>
		<path d="M62,35H52c-0.552,0-1-0.448-1-1v-4c0-0.552,0.448-1,1-1h10c0.552,0,1,0.448,1,1v4C63,34.552,62.552,35,62,35z M53,33h8v-2    h-8V33z"/>
	</g>
	<g>
		<path d="M18.293,50.707l-0.071-0.071C16.144,48.558,15,45.796,15,42.858V41h2v1.858c0,2.404,0.936,4.664,2.636,6.364l0.071,0.071    L18.293,50.707z"/>
	</g>
	<g>
		<path d="M45.707,50.707l-1.414-1.414l0.071-0.071c1.7-1.7,2.636-3.96,2.636-6.364V41h2v1.858c0,2.938-1.144,5.7-3.222,7.778    L45.707,50.707z"/>
	</g>
</g>
</svg>
