<svg id="Filled" height="512" viewBox="0 0 512 512" width="512" xmlns="http://www.w3.org/2000/svg"><path d="m344 104c-.34 0-.68.01-1.02.02a31.649 31.649 0 0 0 1.02-8.02 32.008 32.008 0 0 0 -62.82-8.66 48.117 48.117 0 0 0 -49.19-22.68c.01-.22.01-.44.01-.66a40 40 0 0 0 -79.36-7.12 40.006 40.006 0 0 0 -72.4 27.552 32 32 0 1 0 -32.24 55.276v60.292h312v-54.12a23.994 23.994 0 0 0 -16-41.88z" fill="#fde575"/><path d="m344 424h-288l-16-248h320z" fill="#2b70a8"/><path d="m360 176-16 248h-240v-248z" fill="none"/><g fill="#ce3536"><path d="m104 176v248h-48l-16-248z"/><path d="m168 176h64v248h-64z"/><path d="m344 424h-48v-248h64z"/></g><path d="m40 168h320a16 16 0 0 1 16 16v16a0 0 0 0 1 0 0h-352a0 0 0 0 1 0 0v-16a16 16 0 0 1 16-16z" fill="#a52b2b"/><path d="m488 376v96a16 16 0 0 1 -16 16h-136l-16-32-16 32h-136a16 16 0 0 1 -16-16v-96a16 16 0 0 1 16-16h136l16 32 16-32h136a16 16 0 0 1 16 16z" fill="#fae8d8"/><path d="m184 392h96v64h-96z" fill="#2b70a8"/><path d="m360 392h96v64h-96z" fill="#ce3536"/><path d="m24 208h8.551l15.47 216.57a8 8 0 0 0 7.979 7.43h88v40a24.028 24.028 0 0 0 24 24h136a8 8 0 0 0 7.155-4.422l8.845-17.689 8.845 17.689a8 8 0 0 0 7.155 4.422h136a24.028 24.028 0 0 0 24-24v-96a24.028 24.028 0 0 0 -24-24h-115.337l9.288-144h10.049a8 8 0 0 0 8-8v-16a24.039 24.039 0 0 0 -16-22.624v-12.219a32 32 0 0 0 -16.013-52.148q.013-.504.013-1.009a40 40 0 0 0 -72.352-23.513 56.43 56.43 0 0 0 -40.314-16.487 48.021 48.021 0 0 0 -90.023-14 47.988 47.988 0 0 0 -76.79 30.915 39.993 39.993 0 0 0 -32.521 71.073v16.012a24.028 24.028 0 0 0 -24 24v16a8 8 0 0 0 8 8zm24.592 0h47.408v208h-32.551zm63.408 208v-208h48v145.376a24.039 24.039 0 0 0 -16 22.624v40zm128-64v-144h48v144zm-16 0h-48v-144h48zm256 24v96a8.009 8.009 0 0 1 -8 8h-131.056l-13.789-27.578a8 8 0 0 0 -14.31 0l-13.789 27.578h-131.056a8.009 8.009 0 0 1 -8-8v-96a8.009 8.009 0 0 1 8-8h131.056l13.789 27.578a8 8 0 0 0 14.31 0l13.789-27.578h131.056a8.009 8.009 0 0 1 8 8zm-139.371-24h-4.629a8 8 0 0 0 -7.155 4.422l-8.845 17.689-8.845-17.689a8 8 0 0 0 -7.155-4.422v-144h45.917zm-288.617-219.212a24 24 0 1 1 24.161-41.469 8 8 0 0 0 12.018-7.767 32.577 32.577 0 0 1 -.191-3.552 32 32 0 0 1 58.115-18.491 8 8 0 0 0 14.4-3.217 32 32 0 0 1 63.485 5.708v.306a8 8 0 0 0 9.322 8.243 40.326 40.326 0 0 1 6.678-.549 39.693 39.693 0 0 1 34.318 19.453 8 8 0 0 0 14.564-1.95 24.008 24.008 0 0 1 47.118 6.497 23.681 23.681 0 0 1 -.759 6 8 8 0 0 0 7.981 10.022c.259-.008.518-.017.778-.017a15.994 15.994 0 0 1 10.668 27.916 8 8 0 0 0 -2.668 5.959v14.12h-296v-20.29a8 8 0 0 0 -3.988-6.922zm-20.012 51.212a8.009 8.009 0 0 1 8-8h320a8.009 8.009 0 0 1 8 8v8h-336z"/><path d="m280 384h-96a8 8 0 0 0 -8 8v64a8 8 0 0 0 8 8h96a8 8 0 0 0 8-8v-64a8 8 0 0 0 -8-8zm-8 64h-80v-48h80z"/><path d="m360 464h96a8 8 0 0 0 8-8v-64a8 8 0 0 0 -8-8h-96a8 8 0 0 0 -8 8v64a8 8 0 0 0 8 8zm8-64h80v48h-80z"/><path d="m224 136a32.036 32.036 0 0 0 32-32 8 8 0 0 0 -16 0 16 16 0 0 1 -32 0 8 8 0 0 0 -16 0 32.036 32.036 0 0 0 32 32z"/><path d="m128 128a8 8 0 0 0 0 16 32 32 0 0 0 0-64 8 8 0 0 0 0 16 16 16 0 0 1 0 32z"/></svg>