<?xml version="1.0" encoding="iso-8859-1"?>
<!-- Generator: Adobe Illustrator 19.0.0, SVG Export Plug-In . SVG Version: 6.00 Build 0)  -->
<svg version="1.1" id="Capa_1" xmlns="http://www.w3.org/2000/svg" xmlns:xlink="http://www.w3.org/1999/xlink" x="0px" y="0px"
	 viewBox="0 0 512 512" style="enable-background:new 0 0 512 512;" xml:space="preserve">
<path style="fill:#C55C05;" d="M479.86,504.346H30.813c-3.719,0-6.735-3.015-6.735-6.735v-22.087h462.517v22.087
	C486.595,501.331,483.579,504.346,479.86,504.346z"/>
<path style="fill:#AF4E05;" d="M430.806,475.525v21.737c0,3.913-3.172,7.085-7.085,7.085h55.788c3.913,0,7.085-3.172,7.085-7.085
	v-21.737H430.806z"/>
<g>
	<path style="fill:#D8CAB8;" d="M469.246,430.724h-21.771c-4.228,0-7.654-3.427-7.654-7.654s3.426-7.654,7.654-7.654h21.771
		c4.228,0,7.654,3.427,7.654,7.654S473.473,430.724,469.246,430.724z"/>
	<path style="fill:#D8CAB8;" d="M469.246,447.052c-4.228,0-7.654-3.427-7.654-7.654v-34.017c0-4.227,3.426-7.654,7.654-7.654
		s7.654,3.427,7.654,7.654v34.017C476.9,443.626,473.473,447.052,469.246,447.052z"/>
</g>
<rect x="44.711" y="191.36" style="fill:#F3E8D6;" width="402.76" height="284.16"/>
<path style="fill:#3B4F66;" d="M373.632,439.399H114.514c-19.952,0-36.126,16.174-36.126,36.126l0,0h331.371l0,0
	C409.758,455.573,393.584,439.399,373.632,439.399z"/>
<path style="fill:#253A4C;" d="M98.74,452.111h269.136c13.509,0,24.622,10.261,25.97,23.414h15.912
	c0-19.952-16.174-36.126-36.126-36.126H114.514c-12.269,0-23.102,6.121-29.631,15.471C89.15,453.095,93.829,452.111,98.74,452.111z"
	/>
<path style="fill:#F3E8D6;" d="M414.422,82.604h-106.11c-6.933,0-12.554-5.621-12.554-12.554V59.938
	c0-5.989-4.855-10.843-10.843-10.843l0,0c-5.918,0-10.715-4.797-10.715-10.715l0,0c0-16.969-13.756-30.725-30.725-30.725h-83.463
	c-16.969,0-30.725,13.756-30.725,30.725l0,0c0,5.918-4.797,10.715-10.715,10.715h-2.806c-5.989,0-10.843,4.855-10.843,10.843V70.05
	c0,6.933-5.621,12.554-12.554,12.554H77.763c-18.254,0-33.052,14.798-33.052,33.052v75.704h402.764v-75.704
	C447.475,97.402,432.677,82.604,414.422,82.604z"/>
<path style="fill:#EA3939;" d="M243.474,7.654h-83.463c-16.969,0-30.725,13.756-30.725,30.725l0,0
	c0,5.918-4.797,10.715-10.715,10.715h-2.806c-5.989,0-10.843,4.855-10.843,10.843V70.05c0,6.933-5.621,12.554-12.554,12.554h215.945
	c-6.933,0-12.554-5.621-12.554-12.554V59.938c0-5.989-4.855-10.843-10.843-10.843c-5.918,0-10.715-4.797-10.715-10.715l0,0
	C274.199,21.41,260.443,7.654,243.474,7.654z"/>
<path style="fill:#C55C05;" d="M474.696,82.604h-1.375c-7.305,0-13.226-5.922-13.226-13.226V29.436
	c0-7.305,5.922-13.226,13.226-13.226h1.375c7.305,0,13.226,5.922,13.226,13.226v39.942C487.922,76.682,482,82.604,474.696,82.604z"
	/>
<path style="fill:#AF4E05;" d="M474.008,16.209L474.008,16.209c-2.016,0-3.926,0.438-5.655,1.209
	c4.863,2.168,8.259,7.036,8.259,12.705V68.69c0,5.669-3.395,10.537-8.259,12.705c1.729,0.771,3.64,1.209,5.655,1.209l0,0
	c7.684,0,13.914-6.229,13.914-13.914V30.123C487.922,22.439,481.693,16.209,474.008,16.209z"/>
<rect x="124.31" y="105.69" style="fill:#FDC74F;" width="151.04" height="56.757"/>
<rect x="174.66" y="105.69" style="fill:#6186E4;" width="50.35" height="56.757"/>
<path style="fill:#D8CAB8;" d="M399.511,191.361h-50.677v-26.064c0-13.194,10.695-23.889,23.889-23.889h2.898
	c13.194,0,23.889,10.695,23.889,23.889L399.511,191.361L399.511,191.361z"/>
<path id="SVGCleanerId_0" style="fill:#3B4F66;" d="M116.715,405.252L116.715,405.252c-15.231,0-27.578-12.347-27.578-27.578
	V247.935c0-15.231,12.347-27.578,27.578-27.578l0,0c15.231,0,27.578,12.347,27.578,27.578v129.738
	C144.293,392.905,131.946,405.252,116.715,405.252z"/>
<g>
	<path id="SVGCleanerId_0_1_" style="fill:#3B4F66;" d="M116.715,405.252L116.715,405.252c-15.231,0-27.578-12.347-27.578-27.578
		V247.935c0-15.231,12.347-27.578,27.578-27.578l0,0c15.231,0,27.578,12.347,27.578,27.578v129.738
		C144.293,392.905,131.946,405.252,116.715,405.252z"/>
</g>
<path style="fill:#253A4C;" d="M116.715,220.357L116.715,220.357c-9.27,0-17.466,4.579-22.466,11.593
	c2.164-0.545,4.428-0.838,6.761-0.838l0,0c15.231,0,27.578,12.347,27.578,27.578v129.738c0,5.961-1.898,11.475-5.113,15.985
	c11.962-3.015,20.817-13.842,20.817-26.74V247.935C144.293,232.704,131.946,220.357,116.715,220.357z"/>
<path style="fill:#FF8DC8;" d="M89.137,291.901v85.772c0,15.231,12.347,27.578,27.578,27.578l0,0
	c15.231,0,27.578-12.347,27.578-27.578v-85.772H89.137z"/>
<path style="fill:#3B4F66;" d="M203.281,405.252L203.281,405.252c-15.231,0-27.578-12.347-27.578-27.578V247.935
	c0-15.231,12.347-27.578,27.578-27.578l0,0c15.231,0,27.578,12.347,27.578,27.578v129.738
	C230.859,392.905,218.512,405.252,203.281,405.252z"/>
<path style="fill:#253A4C;" d="M203.281,220.357L203.281,220.357c-9.27,0-17.466,4.579-22.466,11.593
	c2.164-0.545,4.428-0.838,6.761-0.838l0,0c15.231,0,27.578,12.347,27.578,27.578v129.738c0,5.961-1.897,11.475-5.112,15.985
	c11.962-3.015,20.817-13.842,20.817-26.74V247.935C230.859,232.704,218.512,220.357,203.281,220.357z"/>
<path style="fill:#3B4F66;" d="M289.847,405.252L289.847,405.252c-15.231,0-27.578-12.347-27.578-27.578V247.935
	c0-15.231,12.347-27.578,27.578-27.578l0,0c15.231,0,27.578,12.347,27.578,27.578v129.738
	C317.425,392.905,305.078,405.252,289.847,405.252z"/>
<path style="fill:#77D057;" d="M175.703,319.711v57.962c0,15.231,12.347,27.578,27.578,27.578s27.578-12.347,27.578-27.578v-57.962
	H175.703z"/>
<path style="fill:#3B4F66;" d="M376.412,405.252L376.412,405.252c-15.231,0-27.578-12.347-27.578-27.578V247.935
	c0-15.231,12.347-27.578,27.578-27.578l0,0c15.231,0,27.578,12.347,27.578,27.578v129.738
	C403.99,392.905,391.643,405.252,376.412,405.252z"/>
<g>
	<path style="fill:#253A4C;" d="M289.847,220.357c-9.27,0-17.466,4.579-22.466,11.593c2.164-0.545,4.428-0.838,6.761-0.838l0,0
		c15.231,0,27.578,12.347,27.578,27.578v129.738c0,5.961-1.897,11.475-5.112,15.985c11.962-3.015,20.817-13.842,20.817-26.74
		V247.935C317.425,232.704,305.078,220.357,289.847,220.357z"/>
	<path style="fill:#253A4C;" d="M376.412,220.357L376.412,220.357c-9.27,0-17.466,4.579-22.466,11.593
		c2.164-0.545,4.428-0.838,6.761-0.838c15.231,0,27.578,12.347,27.578,27.578v129.738c0,5.961-1.898,11.475-5.113,15.985
		c11.962-3.015,20.817-13.842,20.817-26.74V247.935C403.99,232.704,391.643,220.357,376.412,220.357z"/>
</g>
<path style="fill:#FDC74F;" d="M262.268,264.045v113.629c0,15.231,12.347,27.578,27.578,27.578l0,0
	c15.231,0,27.578-12.347,27.578-27.578V264.045H262.268z"/>
<path style="fill:#00C6C8;" d="M348.834,291.901v85.772c0,15.231,12.347,27.578,27.578,27.578l0,0
	c15.231,0,27.578-12.347,27.578-27.578v-85.772H348.834z"/>
<g>
	<path style="fill:#EA3939;" d="M151.367,123.673l2.036,4.125c0.251,0.508,0.735,0.86,1.296,0.942l4.552,0.661
		c1.412,0.205,1.975,1.94,0.954,2.936l-3.294,3.211c-0.406,0.395-0.591,0.965-0.495,1.524l0.778,4.533
		c0.241,1.406-1.235,2.478-2.497,1.814l-4.071-2.14c-0.501-0.264-1.1-0.264-1.602,0l-4.071,2.14
		c-1.263,0.664-2.739-0.408-2.497-1.814l0.778-4.533c0.096-0.558-0.089-1.128-0.495-1.524l-3.294-3.211
		c-1.022-0.996-0.458-2.731,0.954-2.936l4.552-0.661c0.561-0.081,1.045-0.434,1.296-0.942l2.036-4.125
		C148.912,122.394,150.736,122.394,151.367,123.673z"/>
	<path style="fill:#EA3939;" d="M251.123,123.673l2.036,4.125c0.251,0.508,0.735,0.86,1.296,0.942l4.552,0.661
		c1.412,0.205,1.976,1.94,0.954,2.936l-3.294,3.211c-0.406,0.395-0.591,0.965-0.495,1.524l0.778,4.533
		c0.241,1.406-1.235,2.478-2.497,1.814l-4.071-2.14c-0.501-0.264-1.1-0.264-1.602,0l-4.071,2.14
		c-1.263,0.664-2.739-0.408-2.497-1.814l0.778-4.533c0.096-0.558-0.089-1.128-0.495-1.524l-3.294-3.211
		c-1.022-0.996-0.458-2.731,0.954-2.936l4.552-0.661c0.561-0.081,1.045-0.434,1.296-0.942l2.036-4.125
		C248.667,122.394,250.492,122.394,251.123,123.673z"/>
</g>
<path style="fill:#FDC74F;" d="M201.373,123.673l2.036,4.125c0.251,0.508,0.735,0.86,1.296,0.942l4.552,0.661
	c1.412,0.205,1.975,1.94,0.954,2.936l-3.294,3.211c-0.406,0.395-0.591,0.965-0.495,1.524l0.778,4.533
	c0.241,1.406-1.235,2.478-2.497,1.814l-4.071-2.14c-0.501-0.264-1.1-0.264-1.602,0l-4.071,2.14
	c-1.263,0.664-2.739-0.408-2.497-1.814l0.778-4.533c0.096-0.558-0.089-1.128-0.495-1.524l-3.294-3.211
	c-1.022-0.996-0.458-2.731,0.954-2.936l4.552-0.661c0.561-0.081,1.045-0.434,1.296-0.942l2.036-4.125
	C198.917,122.394,200.741,122.394,201.373,123.673z"/>
<path d="M439.821,361.437c0,4.227,3.426,7.654,7.654,7.654s7.654-3.427,7.654-7.654V249.103
	c15.933-3.511,27.894-17.736,27.894-34.709V88.258c7.397-3.422,12.553-10.896,12.553-19.568V30.123
	c0-11.892-9.675-21.568-21.567-21.568s-21.568,9.675-21.568,21.568V68.69c0,9.703,6.444,17.926,15.275,20.626v125.078
	c0,8.452-5.212,15.701-12.586,18.726V115.656c0-22.445-18.261-40.706-40.706-40.706H308.312c-2.702,0-4.9-2.199-4.9-4.9V59.938
	c0-10.2-8.298-18.497-18.497-18.497c-1.688,0-3.062-1.373-3.062-3.061c0-21.163-17.217-38.38-38.379-38.38h-83.463
	c-21.162,0-38.379,17.217-38.379,38.38c0,1.688-1.373,3.061-3.062,3.061h-2.806c-10.199,0-18.497,8.298-18.497,18.497V70.05
	c0,2.702-2.198,4.9-4.9,4.9H77.763c-22.445,0-40.706,18.261-40.706,40.706v75.705v276.51H24.078c-4.228,0-7.654,3.427-7.654,7.654
	v21.736c0,8.127,6.611,14.739,14.739,14.739H479.51c8.127,0,14.739-6.612,14.739-14.739v-21.736c0-4.227-3.426-7.654-7.654-7.654
	h-31.466v-37.147h6.463v8.674c0,4.227,3.426,7.654,7.654,7.654s7.654-3.427,7.654-7.654v-34.017c0-4.227-3.426-7.654-7.654-7.654
	s-7.654,3.427-7.654,7.654v10.035h-6.463v-19.212c0-4.227-3.426-7.654-7.654-7.654s-7.654,3.427-7.654,7.654v71.667h-23.093
	c-3.632-20.502-21.567-36.126-43.096-36.126H114.513c-21.529,0-39.464,15.624-43.096,36.126H52.364V199.015h231.147
	c4.228,0,7.654-3.427,7.654-7.654s-3.426-7.654-7.654-7.654H52.364v-68.051c0-14.005,11.394-25.398,25.398-25.398h14.604
	c11.143,0,20.208-9.066,20.208-20.208V59.938c0-1.759,1.43-3.19,3.189-3.19h2.806c10.128,0,18.369-8.24,18.369-18.369
	c0-12.722,10.35-23.072,23.071-23.072h83.463c12.722,0,23.071,10.35,23.071,23.072c0,10.128,8.241,18.369,18.369,18.369
	c1.758,0,3.189,1.431,3.189,3.19V70.05c0,11.142,9.065,20.208,20.208,20.208H414.42c14.005,0,25.398,11.394,25.398,25.398v68.051
	h-32.657v-17.169c0-18.077-14.708-32.785-32.785-32.785h-0.416c-18.077,0-32.784,14.707-32.784,32.785v17.169h-19.399
	c-4.228,0-7.654,3.427-7.654,7.654s3.426,7.654,7.654,7.654h27.053h50.677h40.31v162.422H439.821z M467.748,30.123
	c0-3.452,2.808-6.26,6.261-6.26c3.451,0,6.26,2.808,6.26,6.26V68.69c0,3.452-2.808,6.26-6.26,6.26s-6.261-2.808-6.261-6.26V30.123z
	 M114.513,447.053h259.119c13.048,0,24.066,8.826,27.418,20.818H135.026c-4.228,0-7.654,3.427-7.654,7.654s3.426,7.654,7.654,7.654
	h343.915v13.513H31.732v-13.513h70.003c4.228,0,7.654-3.427,7.654-7.654s-3.426-7.654-7.654-7.654h-14.64
	C90.447,455.878,101.466,447.053,114.513,447.053z M356.488,183.707v-17.169c0-9.637,7.84-17.477,17.476-17.477h0.416
	c9.637,0,17.477,7.84,17.477,17.477v17.169H356.488z"/>
<path d="M116.657,105.689v56.757c0,4.227,3.426,7.654,7.654,7.654h151.037c4.228,0,7.654-3.427,7.654-7.654v-56.757
	c0-4.227-3.426-7.654-7.654-7.654H124.311C120.083,98.035,116.657,101.462,116.657,105.689z M182.31,154.792v-41.449h35.038v41.449
	H182.31z M267.694,154.792h-35.037v-41.449h35.037V154.792z M131.965,113.343h35.037v41.449h-35.037V113.343z"/>
<path d="M237.588,45.989c4.228,0,7.654-3.427,7.654-7.654s-3.426-7.654-7.654-7.654h-73.477c-4.228,0-7.654,3.427-7.654,7.654
	s3.426,7.654,7.654,7.654H237.588z"/>
<path d="M134.017,72.012c0,4.227,3.426,7.654,7.654,7.654h118.358c4.228,0,7.654-3.427,7.654-7.654s-3.426-7.654-7.654-7.654
	H141.671C137.443,64.358,134.017,67.785,134.017,72.012z"/>
<path d="M81.483,247.936v129.738c0,19.427,15.805,35.232,35.232,35.232c19.428,0,35.233-15.805,35.233-35.232V247.936
	c0-19.427-15.805-35.232-35.233-35.232C97.288,212.703,81.483,228.508,81.483,247.936z M96.791,370.02v-13.283h39.849v13.283H96.791
	z M96.791,328.146h39.849v13.283H96.791V328.146z M136.64,312.838H96.791v-13.283h39.849V312.838z M116.715,397.598
	c-8.275,0-15.384-5.073-18.39-12.27h36.781C132.099,392.525,124.99,397.598,116.715,397.598z M136.64,247.936v36.312H96.791v-36.312
	c0-10.987,8.938-19.925,19.924-19.925S136.64,236.949,136.64,247.936z"/>
<path d="M230.859,274.075c4.228,0,7.654-3.427,7.654-7.654v-18.485c0-19.427-15.805-35.232-35.233-35.232
	c-19.427,0-35.232,15.805-35.232,35.232v129.738c0,19.427,15.805,35.232,35.232,35.232c19.428,0,35.233-15.805,35.233-35.232
	v-81.148c0-4.227-3.426-7.654-7.654-7.654s-7.654,3.427-7.654,7.654v16.312h-39.849v-64.903c0-10.987,8.938-19.925,19.924-19.925
	s19.925,8.938,19.925,19.925v18.485C223.205,270.648,226.632,274.075,230.859,274.075z M223.205,370.02h-39.849v-13.283h39.849
	V370.02z M203.28,397.598c-8.275,0-15.383-5.073-18.39-12.27h36.781C218.665,392.525,211.556,397.598,203.28,397.598z
	 M223.205,328.146v13.283h-39.849v-13.283H223.205z"/>
<path d="M289.846,212.703c-19.427,0-35.232,15.805-35.232,35.232v129.738c0,19.427,15.805,35.232,35.232,35.232
	c19.428,0,35.233-15.805,35.233-35.232V247.936C325.079,228.508,309.274,212.703,289.846,212.703z M269.922,370.02v-13.283h39.849
	v13.283H269.922z M269.922,312.838v-13.283h39.849v13.283H269.922z M309.771,328.146v13.283h-39.849v-13.283H309.771z
	 M269.922,284.248v-13.04h39.849v13.04H269.922z M289.846,228.011c10.987,0,19.925,8.938,19.925,19.925v7.965h-39.849v-7.965
	C269.922,236.949,278.859,228.011,289.846,228.011z M289.846,397.598c-8.275,0-15.384-5.073-18.39-12.27h36.782
	C305.23,392.525,298.121,397.598,289.846,397.598z"/>
<path d="M341.18,247.936v129.738c0,19.427,15.805,35.232,35.233,35.232c19.427,0,35.232-15.805,35.232-35.232V247.936
	c0-19.427-15.805-35.232-35.233-35.232C356.985,212.703,341.18,228.508,341.18,247.936z M356.488,370.02v-13.283h39.849v13.283
	H356.488z M356.488,328.146h39.849v13.283h-39.849V328.146z M396.337,312.838h-39.849v-13.283h39.849V312.838z M376.413,397.598
	L376.413,397.598c-8.276,0-15.384-5.073-18.391-12.27h36.781C391.796,392.525,384.688,397.598,376.413,397.598z M396.337,247.936
	v36.312h-39.849v-36.312c0-10.987,8.938-19.925,19.925-19.925S396.337,236.949,396.337,247.936z"/>
<circle cx="348.52" cy="111.81" r="7.654"/>
<circle cx="374.17" cy="111.81" r="7.654"/>
<circle cx="399.82" cy="111.81" r="7.654"/>
<g>
</g>
<g>
</g>
<g>
</g>
<g>
</g>
<g>
</g>
<g>
</g>
<g>
</g>
<g>
</g>
<g>
</g>
<g>
</g>
<g>
</g>
<g>
</g>
<g>
</g>
<g>
</g>
<g>
</g>
</svg>
