<svg id="Capa_1" enable-background="new 0 0 512 512" height="512" viewBox="0 0 512 512" width="512" xmlns="http://www.w3.org/2000/svg"><g><g clip-rule="evenodd" fill-rule="evenodd"><path d="m248.225 228.163v-147.372c0-10.685-8.73-19.417-19.417-19.417h-138.868c-10.658 0-19.417 8.732-19.417 19.417v147.372z" fill="#bf8e5e"/><path d="m248.225 228.163v-147.372c0-10.685-8.73-19.417-19.417-19.417h-29.111c10.687 0 19.417 8.732 19.417 19.417v147.372z" fill="#a87547"/><path d="m155.25 223.316h-99.553l-6.775 4.309v238.535c0 4.053 2.013 5.81 5.811 5.81h100.517z" fill="#ffa95f"/><path d="m121.263 223.316h29.14v248.654h-29.14z" fill="#ff8b5a"/><path d="m463.09 466.16c0 3.798-1.644 5.81-5.839 5.81h-306.849v-248.654h301.038l11.65 11.056z" fill="#ffe07d"/><path d="m463.09 466.16c0 3.798-1.644 5.81-5.839 5.81h-23.301v-176.172h29.14z" fill="#ffc269"/><path d="m150.402 223.316h-95.669c-6.491 0-6.917 1.928-8.703 5.074l-35.63 62.363c-1.786 3.117-.85 5.045 2.92 5.045h89.829c4.082 0 6.832-1.757 8.703-5.045z" fill="#ffe07d"/><path d="m433.638 233.039v-84.301c0-16.016-13.096-29.111-29.111-29.111h-56.296c-16.016 0-29.14 13.096-29.14 29.111v84.301z" fill="#f4fbff"/><path d="m433.638 233.039v-84.301c0-16.016-13.096-29.111-29.111-29.111h-29.14c16.016 0 29.14 13.096 29.14 29.111v84.301z" fill="#e4f6ff"/><path d="m404.527 119.627v-60.18c0-10.688-8.759-19.418-19.417-19.418h-17.49c-10.658 0-19.389 8.73-19.389 19.418v60.18z" fill="#b1e4f9"/><path d="m404.527 119.627v-60.18c0-10.688-8.759-19.418-19.417-19.418h-17.49c-2.013 0-3.969.312-5.811.879 7.852 2.494 13.578 9.864 13.578 18.539v60.18z" fill="#90d8f9"/><path d="m281.249 176.885v-35.914c0-10.687-8.759-19.417-19.418-19.417h-48.047c-10.687 0-19.417 8.759-19.417 19.417v35.914z" fill="#78c2a4"/><path d="m281.249 176.885v-35.914c0-10.687-8.759-19.417-19.418-19.417h-29.14c10.687 0 19.418 8.73 19.418 19.417v35.914z" fill="#55aaa0"/><path d="m184.645 223.316 55.955 13.097 50.343-13.097-9.694-51.278h-86.881z" fill="#aadca5"/><path d="m261.832 223.316h29.111l-9.694-51.278h-29.14z" fill="#87cda0"/><path d="m354.042 153.557h44.645c3.204 0 5.84 2.637 5.84 5.84v24.149c0 3.203-2.636 5.84-5.84 5.84h-44.645c-3.203 0-5.811-2.637-5.811-5.84v-24.149c0-3.204 2.608-5.84 5.811-5.84z" fill="#90d8f9"/><path d="m369.576 153.557h29.111c3.204 0 5.84 2.637 5.84 5.84v24.149c0 3.203-2.636 5.84-5.84 5.84h-29.111c3.203 0 5.811-2.637 5.811-5.84v-24.149c0-3.204-2.608-5.84-5.811-5.84z" fill="#75cef9"/><path d="m150.402 223.316h306.849c3.883 0 6.605 1.36 8.731 5.074l35.631 62.362c1.814 3.175.822 5.045-2.948 5.045h-301.038c-3.317 0-6.52-1.246-8.703-5.045z" fill="#ffebb5"/></g><path d="m240.742 114.07v-33.279c0-3.26-1.36-6.236-3.515-8.418-2.154-2.154-5.131-3.487-8.419-3.487h-138.868c-3.26 0-6.236 1.333-8.39 3.487-2.183 2.182-3.515 5.158-3.515 8.418v48.955c0 4.139-3.345 7.512-7.512 7.512-4.139 0-7.483-3.373-7.483-7.512v-48.955c0-7.398 3.033-14.144 7.909-19.019 4.847-4.876 11.594-7.909 18.992-7.909h138.869c7.427 0 14.145 3.033 19.021 7.909 4.876 4.875 7.908 11.621 7.908 19.019v33.279h6.095c7.399 0 14.145 3.004 19.021 7.881 4.847 4.875 7.88 11.621 7.88 19.02v30.472l8.419 44.391h14.456v-67.095c0-10.092 4.11-19.248 10.743-25.881 4.933-4.932 11.282-8.476 18.369-9.949v-53.462c0-7.428 3.033-14.146 7.909-19.021s11.594-7.908 18.992-7.908h17.49c7.398 0 14.145 3.033 19.02 7.908 4.875 4.876 7.88 11.594 7.88 19.021v11.904h31.833c4.139 0 7.483 3.346 7.483 7.484 0 4.166-3.345 7.512-7.483 7.512h-31.836v26.561c7.086 1.474 13.436 5.018 18.368 9.949 6.633 6.633 10.772 15.789 10.772 25.881v5.754c0 4.139-3.374 7.483-7.512 7.483s-7.512-3.345-7.512-7.483v-5.754c0-5.925-2.409-11.339-6.35-15.251-3.912-3.94-9.326-6.378-15.25-6.378h-56.296c-5.953 0-11.367 2.437-15.279 6.378-3.912 3.912-6.35 9.326-6.35 15.251v67.095h99.524v-27.383c0-4.139 3.374-7.483 7.512-7.483 4.139 0 7.512 3.345 7.512 7.483v27.383h21.94c2.92 0 5.442 1.645 6.661 4.082l41.244 72.171c2.892 5.017-.822 11.224-6.491 11.224h-33.93v168.661c0 4.167-3.345 7.512-7.483 7.512h-414.168c-4.139 0-7.511-3.345-7.511-7.512v-168.661h-33.902c-5.669 0-9.383-6.179-6.52-11.224l41.244-72.171c1.248-2.438 3.769-4.082 6.689-4.082h14.117v-52.1c0-4.167 3.345-7.513 7.483-7.513 4.167 0 7.512 3.346 7.512 7.513v52.1h100.431l8.39-44.391v-30.472c0-7.398 3.033-14.145 7.909-19.02 4.876-4.877 11.594-7.881 19.021-7.881h26.957zm107.489 32.003h56.296c4.139 0 7.483 3.345 7.483 7.483v35.829c0 4.139-3.345 7.483-7.483 7.483h-56.296c-4.167 0-7.512-3.345-7.512-7.483v-35.829c0-4.138 3.345-7.483 7.512-7.483zm48.784 14.995h-41.3v20.806h41.3zm-205.199 190.77c-4.139 0-7.512-3.373-7.512-7.512 0-4.138 3.373-7.481 7.512-7.481h156.33c4.139 0 7.512 3.344 7.512 7.481 0 4.139-3.373 7.512-7.512 7.512zm0 67.947c-4.139 0-7.512-3.346-7.512-7.512 0-4.139 3.373-7.484 7.512-7.484h105.448c4.138 0 7.483 3.346 7.483 7.484 0 4.166-3.345 7.512-7.483 7.512zm0-33.988c-4.139 0-7.512-3.344-7.512-7.482 0-4.139 3.373-7.512 7.512-7.512h156.33c4.139 0 7.512 3.373 7.512 7.512s-3.373 7.482-7.512 7.482zm81.921-221.27v-23.557c0-3.26-1.332-6.236-3.515-8.418-2.154-2.154-5.131-3.487-8.391-3.487h-13.606-34.44c-3.288 0-6.264 1.333-8.419 3.487-2.155 2.182-3.515 5.158-3.515 8.418v23.557zm8.164 51.306-6.86-36.312h-74.494l-6.86 36.312zm-144.425 14.995h-84.217l-32.853 57.458h84.217zm259.539-118.714v-33.278-19.389c0-3.289-1.332-6.266-3.515-8.42-2.154-2.154-5.13-3.515-8.39-3.515h-17.49c-3.26 0-6.236 1.36-8.391 3.515-2.183 2.154-3.515 5.131-3.515 8.42v52.667zm-340.609 191.196v161.178h86.485v-69.194c0-4.139 3.345-7.482 7.512-7.482 4.139 0 7.483 3.344 7.483 7.482v69.194h297.693v-161.178h-90.425c-4.167 0-7.512-3.373-7.512-7.512s3.345-7.512 7.512-7.512h97.936 28.488l-32.825-57.458c-98.503 0-196.979 0-295.454 0l32.853 57.458h135.013c4.139 0 7.512 3.373 7.512 7.512s-3.373 7.512-7.512 7.512h-139.35c-2.92 0-5.442-1.672-6.69-4.109l-27.241-47.65v109.784c0 4.139-3.345 7.484-7.483 7.484-4.167 0-7.512-3.346-7.512-7.484v-109.785l-27.239 47.65c-1.247 2.438-3.77 4.109-6.69 4.109h-52.554z"/></g></svg>