<svg id="Capa_1" enable-background="new 0 0 511.934 511.934" height="512" viewBox="0 0 511.934 511.934" width="512" xmlns="http://www.w3.org/2000/svg"><g><path d="m152.467 215.189h207v134.89h-207z" fill="#5680a6"/><path d="m299.847 292.084v39.2l-43.88 33.05-43.88-33.05v-39.2c10.95 7.21 24.05 11.4 38.14 11.4h11.48c14.09 0 27.19-4.19 38.14-11.4z" fill="#fed2a4"/><path d="m242.087 331.284 28.88 21.75-15 11.3-43.88-33.05v-39.2c8.81 5.8 19.01 9.65 30 10.92z" fill="#ffbd86"/><path d="m331.215 162.429h15.061c11.541 0 20.897 9.356 20.897 20.897v15.659c0 11.541-9.356 20.897-20.897 20.897h-15.061z" fill="#fed2a4"/><path d="m180.719 162.429h-15.061c-11.541 0-20.897 9.356-20.897 20.897v15.659c0 11.541 9.356 20.897 20.897 20.897h15.061z" fill="#fed2a4"/><path d="m331.217 116.154v117.82c0 38.39-31.12 69.51-69.51 69.51h-11.48c-38.39 0-69.51-31.12-69.51-69.51v-117.82z" fill="#fff3de"/><path d="m270.967 302.864c-3.03.41-6.12.62-9.26.62h-11.48c-38.39 0-69.51-31.12-69.51-69.51v-117.82h30v117.82c0 35.25 26.24 64.37 60.25 68.89z" fill="#ffe5c2"/><path d="m331.217 116.154v65.76c-16.9-1.99-32.28-9.75-43.78-21.7-18.99 14.31-42.22 22.21-66.54 22.21h-40.18v-66.27z" fill="#ffe5c2"/><path d="m213.887 38.179c-34.01 0-61.58 27.57-61.58 61.58v62.67h68.59c28.18 0 53.36-12.86 69.99-33.03 7.84 19.37 26.81 33.03 48.99 33.03h19.43v-52.3c0-22.58-18.31-40.89-40.89-40.89-.18-17.2-14.18-31.06-31.39-31.06z" fill="#5680a6"/><path d="m213.887 38.174h28.41c-34.01 0-61.58 27.57-61.58 61.58v62.67h-28.41v-62.67c0-34.01 27.57-61.58 61.58-61.58z" fill="#497090"/><path d="m85.127 504.432h341.68v-102.343c0-18.33-11.89-34.55-29.38-40.06l-97.61-30.74-43.85 33.05-43.85-33.05-97.61 30.74c-17.49 5.51-29.38 21.73-29.38 40.06z" fill="#f2fbff"/><path d="m212.117 331.284 11.79 8.88-69.4 21.86c-17.49 5.51-29.38 21.73-29.38 40.06v102.35h-40v-102.35c0-18.33 11.89-34.55 29.38-40.06z" fill="#dff6fd"/><path d="m162.74 22.967 31.103 77.66c41.413-1.105 82.829.199 124.249 0l31.103-77.66c-62.01-20.684-124.161-20.732-186.455 0z" fill="#9cf8d2"/><path d="m192.737 22.964 30.94 77.23c-9.94.04-19.89.17-29.83.43l-31.11-77.66c36.15-12.03 72.24-17.06 108.29-15.12-26.07 1.39-52.17 6.43-78.29 15.12z" fill="#6cf5c2"/><path d="m248.087 100.224c-8.08.06-16.16.19-24.24.4l-.17-.43c8.14-.04 16.27-.01 24.41.03z" fill="#6cf5c2"/><g><g><path d="m223.584 207.119c-4.143 0-7.5-3.357-7.5-7.5v-9.844c0-4.143 3.357-7.5 7.5-7.5s7.5 3.357 7.5 7.5v9.844c0 4.142-3.357 7.5-7.5 7.5z"/></g><g><path d="m288.203 207.119c-4.143 0-7.5-3.357-7.5-7.5v-9.844c0-4.143 3.357-7.5 7.5-7.5s7.5 3.357 7.5 7.5v9.844c0 4.142-3.358 7.5-7.5 7.5z"/></g><g><path d="m255.967 266.711c-14.507 0-26.309-11.802-26.309-26.309 0-4.143 3.357-7.5 7.5-7.5s7.5 3.357 7.5 7.5c0 6.235 5.073 11.309 11.309 11.309s11.309-5.073 11.309-11.309c0-4.143 3.357-7.5 7.5-7.5s7.5 3.357 7.5 7.5c0 14.507-11.802 26.309-26.309 26.309z"/></g><g><path d="m426.807 433.125c4.143 0 7.5-3.357 7.5-7.5v-23.54c0-21.716-13.915-40.689-34.627-47.214l-32.713-10.302v-126.164c4.773-5.083 7.706-11.913 7.706-19.419v-15.659c-.269-10.329-4.331-17.892-7.866-20.901v-52.3c0-18.539-10.797-35.389-27.052-43.422l16.404-40.949c1.32-4.622-.21-7.923-4.589-9.904-63.367-21.133-127.696-21.134-191.201-.003-4.383 1.979-5.914 5.281-4.594 9.905l9.857 24.605c-13.285 12.969-20.824 30.67-20.824 49.396 0 0 .052 63.68.15 64.163-4.767 5.082-7.695 11.907-7.695 19.408v15.659c0 7.506 2.933 14.337 7.706 19.419v55.379c0 4.143 3.357 7.5 7.5 7.5s7.5-3.357 7.5-7.5v-46.975c4.072.832 9.062.731 13.25.574v6.597c0 25.391 12.359 47.944 31.37 61.98v29.833l-44.62 14.052v-33.37c0-4.143-3.357-7.5-7.5-7.5s-7.5 3.357-7.5 7.5v38.094l-32.714 10.302c-20.711 6.524-34.626 25.498-34.626 47.214v102.35c0 4.143 3.357 7.5 7.5 7.5h341.68c4.143 0 7.5-3.357 7.5-7.5v-46.12c0-4.143-3.357-7.5-7.5-7.5s-7.5 3.357-7.5 7.5v38.62h-42.07v-64c0-4.143-3.357-7.5-7.5-7.5s-7.5 3.357-7.5 7.5v64h-129.834v-66.513l102.121-80.342 60.647 19.1c14.436 4.548 24.134 17.771 24.134 32.907v23.54c0 4.142 3.357 7.5 7.5 7.5zm-119.46-107.336v-29.829c19.011-14.036 31.37-36.589 31.37-61.98v-6.597c4.188.157 9.178.258 13.25-.574v113.036zm-77.284 48.743-36.253-29.619 16.853-5.307 32.876 24.762zm129.61-175.547c0 7.388-6.01 13.397-13.397 13.397h-7.559v-42.454h7.559c7.388 0 13.397 6.01 13.397 13.397zm-199.866-99.23c0-12.501 4.298-24.417 12.01-33.956l15.069 37.616c1.166 2.912 3.979 4.786 7.159 4.708 13.287-.35 27.717-.486 45.398-.428h.025c4.13 0 7.485-3.342 7.499-7.476.014-4.142-3.333-7.511-7.476-7.524-15.551-.052-28.619.048-40.619.308l-26.175-65.34c55.353-16.855 111.306-16.857 166.541-.005l-26.232 65.482c-13.638.029-27.419-.092-40.794-.206-.021 0-.043 0-.064 0-4.112 0-7.464 3.316-7.499 7.437-.035 4.142 3.294 7.528 7.437 7.563 12.198.104 43.102.204 46.036.19 3.053-.014 5.793-1.877 6.928-4.711l9.107-22.734c10.648 5.727 17.651 17.039 17.651 29.445v44.8h-11.93c-18.568 0-35.069-11.126-42.038-28.344-3.505-5.48-7.751-6.133-12.739-1.958-15.877 19.257-39.278 30.302-64.203 30.302h-61.09v-55.169zm5.852 112.628c-7.388 0-13.397-6.01-13.397-13.397v-15.659c0-7.388 6.01-13.397 13.397-13.397h7.559v42.454h-7.559zm22.558 21.596.002-64.055h32.678c25.703 0 50.031-9.947 68.264-27.616 8.037 12.513 20.342 21.515 34.555 25.432l.002 66.239c0 34.192-27.817 62.01-62.01 62.01h-11.48c-34.193 0-62.011-27.817-62.011-62.01zm62.01 77.01h11.48c10.885 0 21.243-2.283 30.64-6.375v22.908l-36.38 27.421-36.38-27.421v-22.908c9.397 4.092 19.755 6.375 30.64 6.375zm-157.6 91.096c0-15.136 9.698-28.359 24.133-32.907l59.938-18.876 41.038 33.528-28.409 21.429c-1.879 1.417-2.983 3.634-2.983 5.987v85.688h-36.646v-64c0-4.143-3.357-7.5-7.5-7.5s-7.5 3.357-7.5 7.5v64h-42.07v-94.849zm224.574-57.462-96.934 76.26c-1.808 1.422-2.862 3.595-2.862 5.895v70.157h-16.062v-81.951l99.931-75.377z"/><path d="m297.183 434.47c-4.143 0-7.5 3.357-7.5 7.5s3.357 7.5 7.5 7.5h36.439c4.143 0 7.5-3.357 7.5-7.5s-3.357-7.5-7.5-7.5z"/><path d="m248.307 68.03c0 4.143 3.357 7.5 7.5 7.5s7.5-3.357 7.5-7.5v-8.031h8.031c4.143 0 7.5-3.357 7.5-7.5s-3.357-7.5-7.5-7.5h-8.031v-8.031c0-4.143-3.357-7.5-7.5-7.5s-7.5 3.357-7.5 7.5v8.031h-8.031c-4.143 0-7.5 3.357-7.5 7.5s3.357 7.5 7.5 7.5h8.031z"/></g></g></g></svg>