<?xml version="1.0" encoding="iso-8859-1"?>
<!-- Generator: Adobe Illustrator 19.0.0, SVG Export Plug-In . SVG Version: 6.00 Build 0)  -->
<svg xmlns="http://www.w3.org/2000/svg" xmlns:xlink="http://www.w3.org/1999/xlink" version="1.1" id="Layer_1" x="0px" y="0px" viewBox="0 0 512 512" style="enable-background:new 0 0 512 512;" xml:space="preserve" width="512" height="512">
<path style="fill-rule:evenodd;clip-rule:evenodd;fill:#EDEDED;" d="M196.804,452.13l-19.509-50.893l-34.778,12.837l29.888,80.826  c20.499-11.53,29.151-30.303,24.769-41.747L196.804,452.13z"/>
<path style="fill-rule:evenodd;clip-rule:evenodd;fill:#FFA21F;" d="M297.293,410.013l18.888-39.22  c-16.541-9.542-58.076-27.746-63.986-67.99l-9.811,50.922l-5.288,27.49l-59.801,20.022l19.509,50.893l86.805-29.99  C291.695,419.328,294.692,415.408,297.293,410.013L297.293,410.013z"/>
<path style="fill-rule:evenodd;clip-rule:evenodd;fill:#FFA21F;" d="M400.553,348.584l-46.484-45.781H252.195  c5.91,40.244,47.445,58.448,63.986,67.99l38.058,21.386l-0.027,71.852h52.082v-78.895v-15.79  C406.293,358.07,407.169,355.088,400.553,348.584L400.553,348.584z"/>
<path style="fill-rule:evenodd;clip-rule:evenodd;fill:#EDEDED;" d="M442.938,501.915c6.786-22.322-24.43-37.885-36.617-37.885  h-0.028h-52.082v0.652l-0.113,37.232H442.938z"/>
<path style="fill-rule:evenodd;clip-rule:evenodd;fill:#FC4250;" d="M354.154,254.892l0.085-48.194l-30.593-48.165  c-7.832,3.605-16.173,5.595-24.372,5.595c-11.283,0-20.923-2.131-29.096-5.965l-21.913,31.667  c11.649-3.124,23.977,3.35,27.907,14.966c4.101,12.099-2.375,25.36-14.42,29.48l-21.631,7.412l12.074,61.115h101.874  L354.154,254.892z"/>
<path style="fill-rule:evenodd;clip-rule:evenodd;fill:#FDD99B;" d="M261.752,234.275c12.044-4.119,18.521-17.381,14.42-29.48  c-3.93-11.616-16.258-18.09-27.907-14.966c-0.481,0.142-0.989,0.282-1.471,0.453l-60.819,20.846  c-8.991,3.067-15.296,11.56-15.635,21.072v21.13v39.589c0,12.808,10.744,23.203,23.439,23.147  c12.725-0.058,23.101-10.566,23.045-23.346l-0.17-42.998l23.468-8.036L261.752,234.275z"/>
<path style="fill-rule:evenodd;clip-rule:evenodd;fill:#FDD99B;" d="M411.665,245.664l33.647-47.883  c7.323-10.451,4.524-25.077-5.967-32.319c-10.488-7.241-24.966-4.572-32.176,5.965l-24.26,35.414l-28.671-0.143l-0.085,48.194  l35.91-0.028C400.865,254.836,405.02,254.807,411.665,245.664L411.665,245.664z"/>
<path style="fill-rule:evenodd;clip-rule:evenodd;fill:#FDD99B;" d="M323.646,158.533c22.111-10.112,40.348-32.889,40.348-59.385  c0-16.841-6.391-32.206-16.852-43.766c-14.845,9.941-36.956,14.741-53.525,15.99c-36.615,2.812-53.948,53.079-53.948,53.079  c6.276,14.883,16.088,26.951,30.508,33.711c8.172,3.834,17.813,5.965,29.096,5.965C307.473,164.128,315.813,162.139,323.646,158.533  L323.646,158.533z"/>
<path style="fill-rule:evenodd;clip-rule:evenodd;fill:#B3B3B3;" d="M347.142,55.383c14.505-9.684,22.083-24.31,10.772-45.296  c-39.33,19.68-62.854,6.787-84.994,14.653c-38.228,13.575-50.329,47.598-33.251,99.712c0,0,17.333-50.268,53.948-53.079  C310.186,70.124,332.298,65.324,347.142,55.383L347.142,55.383z"/>
<g>
	<path d="M406.321,453.946h-42.022l0.023-61.764c0.001-3.646-1.966-7.01-5.145-8.796l-38.058-21.386l0,0   c-1.851-1.064-3.962-2.217-6.199-3.435c-15.641-8.523-40.413-22.032-49.672-45.678h84.688l43.547,42.888   c2.815,2.768,2.815,2.768,2.746,9.961c-0.01,1.106-0.022,2.303-0.022,3.608v15.79c0,5.569,4.515,10.084,10.084,10.084   s10.084-4.515,10.084-10.084v-15.79c0-1.236,0.011-2.369,0.021-3.416c0.087-9.151,0.15-15.763-8.769-24.529l-43.468-42.811   l0.06-33.618l25.87-0.021c11.648-0.03,20.063-0.053,29.732-13.355c0.032-0.044,0.063-0.087,0.094-0.131l33.654-47.894   c5.052-7.21,6.967-16.008,5.394-24.772c-1.592-8.867-6.525-16.551-13.889-21.634c-7.299-5.039-16.136-6.922-24.889-5.301   c-8.75,1.621-16.327,6.547-21.335,13.864l-21.239,31.003l-17.815-0.088l-21.907-34.49c20.469-13.125,36.188-35.901,36.188-63.003   c0-15.146-4.527-29.782-12.9-42.163c3.043-2.995,5.68-6.348,7.736-10.109c4.658-8.521,8.071-22.652-2.123-41.573   c-2.584-4.799-8.514-6.674-13.389-4.234c-19.768,9.891-34.667,10.719-48.234,10.72c-1.67,0-3.308-0.015-4.916-0.028   c-1.608-0.013-3.189-0.026-4.746-0.026c-7.79,0-16.861,0.271-25.961,3.504c-25.495,9.055-64.504,35.662-39.523,112.151   c0.003,0.012,0.007,0.022,0.011,0.034c0.019,0.058,0.036,0.113,0.054,0.17c0.085,0.262,0.182,0.517,0.287,0.768   c0.002,0.004,0.003,0.009,0.005,0.013c6.013,14.248,14.551,25.297,25.329,32.979L241.904,181.3l-59.184,20.284   c-12.944,4.417-21.969,16.576-22.457,30.259c-0.004,0.12-0.006,0.238-0.006,0.358v11.046h-57.663   c-5.569,0-10.084,4.515-10.084,10.084c0,5.569,4.515,10.084,10.084,10.084h57.663v29.505c0,18.324,14.993,33.232,33.421,33.232   l0.147-0.001c18.322-0.083,33.163-15.1,33.082-33.47l-0.141-35.762l5.701-1.953l9.455,47.86l-7.858,40.813h-57.362   c-5.569,0-10.083,4.515-10.083,10.084c0,5.569,4.514,10.085,10.083,10.085h53.478l-1.87,9.713l-54.216,18.152   c-0.052,0.018-0.101,0.041-0.152,0.06c-0.045,0.017-0.091,0.026-0.137,0.043l-34.779,12.836c-2.51,0.927-4.549,2.813-5.668,5.242   c-1.119,2.431-1.226,5.206-0.298,7.716l29.887,80.827c1.024,2.768,3.209,4.95,5.98,5.968c1.126,0.414,2.303,0.618,3.477,0.618   c1.712,0,3.417-0.436,4.943-1.294c19.529-10.984,31.502-28.972,31.043-44.894l78.53-27.133   c11.751-4.085,16.295-10.716,19.457-17.274l14.179-29.442l17.286,9.95c0.786,0.452,1.607,0.785,2.443,1.008l3.867,2.173   l-0.025,65.917c0,0.002,0,0.003,0,0.005l-0.113,37.885c-0.008,2.681,1.052,5.253,2.943,7.151c1.892,1.897,4.461,2.964,7.141,2.964   h88.84c4.44,0,8.357-2.903,9.648-7.151c3.034-9.98,1.13-19.986-5.505-28.939C437.344,462.77,418.145,453.946,406.321,453.946z    M382.86,216.925c3.315,0.029,6.479-1.627,8.368-4.385l24.263-35.418c1.96-2.863,4.932-4.791,8.369-5.428   c3.439-0.635,6.904,0.098,9.758,2.067c2.909,2.009,4.861,5.062,5.497,8.6c0.617,3.436-0.115,6.856-2.052,9.621l-33.6,47.816   c-3.602,4.956-3.643,4.955-13.406,4.981l-25.801,0.02l0.05-27.968L382.86,216.925z M353.91,99.148   c0,30.915-29.371,54.895-54.637,54.895c-9.248,0-17.355-1.587-24.379-4.786c-0.29-0.154-0.584-0.294-0.883-0.417   c-10-4.813-17.745-12.991-23.388-24.643c4.49-10.514,19.521-40.908,43.759-42.769c6.446-0.491,30.331-2.929,50.226-12.932   C350.645,77.515,353.91,88.146,353.91,99.148z M245.104,63.384c4.686-13.82,14.889-23.351,31.192-29.141   c5.485-1.948,11.417-2.34,19.21-2.34c1.501,0,3.025,0.013,4.576,0.025c1.664,0.015,3.358,0.028,5.087,0.028   c13.941,0,29.245-1.125,47.386-8.4c1.297,5.14,0.848,9.648-1.337,13.645c-7.707,14.101-35.658,22.385-58.372,24.115   c-23.327,1.792-39.637,18.778-49.769,34.209C241.38,83.138,242.053,72.382,245.104,63.384z M213.386,240.183   c-4.091,1.401-6.833,5.256-6.816,9.58l0.17,43.002c0.032,7.255-5.803,13.184-13.005,13.217h-0.058   c-7.184,0-13.254-5.982-13.254-13.063v-38.534c0.036-0.347,0.056-0.698,0.056-1.055c0-0.357-0.02-0.708-0.056-1.055v-19.869   c0.253-5.233,3.855-10.044,8.82-11.738l60.811-20.843c1.343-0.459,2.736-0.691,4.142-0.691c5.628,0,10.622,3.576,12.425,8.898   c2.331,6.878-1.317,14.369-8.138,16.701L213.386,240.183z M265.015,243.817c17.309-5.919,26.599-24.876,20.708-42.258   c-3.206-9.461-10.383-16.734-19.295-20.255l7.504-10.846c7.724,2.488,16.19,3.753,25.341,3.753c6.706,0,13.561-1.16,20.27-3.33   l24.607,38.74l-0.08,45.276c0,0,0,0.001,0,0.002c0,0.001,0,0.001,0,0.002l-0.067,37.816h-83.521l-8.761-44.348L265.015,243.817z    M177.299,479.063l-21.825-59.022l15.966-5.892l16.316,42.612C189.535,461.405,186.445,470.729,177.299,479.063z M288.21,405.634   c-1.74,3.61-2.943,5.253-7.893,6.974l-77.605,26.813l-12.237-31.96l49.823-16.682c3.452-1.156,6.013-4.082,6.701-7.656   l8.814-45.773c13.476,18.654,33.5,30.194,47.145,37.664L288.21,405.634z M364.212,491.831l0.053-17.717h42.056   c4.919,0,18.311,5.376,24.557,13.805c1.04,1.403,1.742,2.707,2.198,3.912H364.212z"/>
	<path d="M139.152,363.525c5.569,0,10.084-4.516,10.084-10.085c0-5.569-4.515-10.084-10.084-10.084h-0.254   c-5.569,0-10.083,4.515-10.083,10.084c0,5.569,4.514,10.085,10.083,10.085H139.152z"/>
	<path d="M62.839,243.247h-0.255c-5.569,0-10.084,4.515-10.084,10.084c0,5.569,4.515,10.084,10.084,10.084h0.255   c5.569,0,10.083-4.515,10.083-10.084C72.922,247.762,68.408,243.247,62.839,243.247z"/>
	<path d="M406.321,413.76c-5.569,0-10.084,4.515-10.084,10.084v0.255c0,5.569,4.515,10.084,10.084,10.084   c5.569,0,10.084-4.515,10.084-10.084v-0.255C416.405,418.274,411.89,413.76,406.321,413.76z"/>
</g>















</svg>
